<?xml version="1.0" encoding="UTF-8"?>
<svg width="46px" height="46px" viewBox="0 0 46 46" version="1.1" xmlns="http://www.w3.org/2000/svg" xmlns:xlink="http://www.w3.org/1999/xlink">
    <title>icon01</title>
    <g id="Page-1" stroke="none" stroke-width="1" fill="none" fill-rule="evenodd">
        <g id="000_首頁copy" transform="translate(-125.000000, -1065.000000)">
            <g id="群組-3" transform="translate(110.000000, 990.000000)">
                <g id="icon01" transform="translate(15.000000, 75.000000)">
                    <path d="M23,0.999948 C35.15021,0.999948 44.999914,10.849698 44.999914,23 C44.999914,35.150164 35.15021,44.999914 23,44.999914 C10.849698,44.999914 0.999994,35.150164 0.999994,23 C0.999994,10.849698 10.849698,0.999948 23,0.999948 Z" id="Circle-BG" fill="#7A6FBE"></path>
                    <path d="M16.8476562,32 C17.3424479,31.9088542 17.8339844,31.749349 18.3222656,31.5214844 C18.8105469,31.2936198 19.2630208,31.046224 19.6796875,30.7792969 C20.0963542,30.5123698 20.4576823,30.2519531 20.7636719,29.9980469 C21.0696615,29.7441406 21.2747396,29.5520833 21.3789062,29.421875 C21.6002604,29.4609375 21.7923177,29.483724 21.9550781,29.4902344 C22.1178385,29.4967448 22.2903646,29.5 22.4726562,29.5 L23,29.5 L23,29.5 C24.3802083,29.5 25.6790365,29.3046875 26.8964844,28.9140625 C28.1139323,28.5234375 29.1751302,27.9863281 30.0800781,27.3027344 C30.985026,26.6191406 31.6979167,25.8248698 32.21875,24.9199219 C32.7395833,24.014974 33,23.0416667 33,22 C33,20.9583333 32.7395833,19.985026 32.21875,19.0800781 C31.6979167,18.1751302 30.985026,17.3808594 30.0800781,16.6972656 C29.1751302,16.0136719 28.1139323,15.4765625 26.8964844,15.0859375 C25.6790365,14.6953125 24.3802083,14.5 23,14.5 C21.6197917,14.5 20.3209635,14.6953125 19.1035156,15.0859375 C17.8860677,15.4765625 16.8248698,16.0136719 15.9199219,16.6972656 C15.014974,17.3808594 14.3020833,18.1751302 13.78125,19.0800781 C13.2604167,19.985026 13,20.9583333 13,22 C13,22.6510417 13.094401,23.2727865 13.2832031,23.8652344 C13.4720052,24.4576823 13.7421875,25.0175781 14.09375,25.5449219 C14.4453125,26.0722656 14.8815104,26.5572917 15.4023438,27 C15.9231771,27.4427083 16.515625,27.8333333 17.1796875,28.171875 C17.1796875,28.1848958 17.1764323,28.1946615 17.1699219,28.2011719 C17.1634115,28.2076823 17.1601562,28.2174479 17.1601562,28.2304688 C17.1601562,28.7903646 17.0397135,29.3470052 16.7988281,29.9003906 C16.5579427,30.453776 16.3463542,30.8932292 16.1640625,31.21875 C16.1510417,31.2447917 16.141276,31.2773438 16.1347656,31.3164062 C16.1282552,31.3554688 16.125,31.3945312 16.125,31.4335938 C16.125,31.5898438 16.1803385,31.7233073 16.2910156,31.8339844 C16.4016927,31.9446615 16.5351562,32 16.6914062,32 L16.8476562,32 L16.8476562,32 Z M17.9804688,30.3007812 C18.1106771,29.9882812 18.2148438,29.6660156 18.2929688,29.3339844 C18.3710938,29.0019531 18.4101562,28.6666667 18.4101562,28.328125 L18.4296875,28.2890625 L18.4296875,27.4101562 L17.7460938,27.0585938 C17.1861979,26.7851562 16.6914062,26.4628906 16.2617188,26.0917969 C15.8320312,25.7207031 15.4674479,25.3203125 15.1679688,24.890625 C14.8684896,24.4609375 14.640625,24.0019531 14.484375,23.5136719 C14.328125,23.0253906 14.25,22.5208333 14.25,22 C14.25,21.140625 14.4811198,20.3300781 14.9433594,19.5683594 C15.405599,18.8066406 16.030599,18.1425781 16.8183594,17.5761719 C17.6061198,17.0097656 18.530599,16.5638021 19.5917969,16.2382812 C20.6529948,15.9127604 21.7890625,15.75 23,15.75 C24.2109375,15.75 25.3470052,15.9127604 26.4082031,16.2382812 C27.469401,16.5638021 28.3938802,17.0097656 29.1816406,17.5761719 C29.969401,18.1425781 30.594401,18.8066406 31.0566406,19.5683594 C31.5188802,20.3300781 31.75,21.140625 31.75,22 C31.75,22.859375 31.5188802,23.6699219 31.0566406,24.4316406 C30.594401,25.1933594 29.969401,25.8574219 29.1816406,26.4238281 C28.3938802,26.9902344 27.469401,27.4361979 26.4082031,27.7617188 C25.3470052,28.0872396 24.2109375,28.25 23,28.25 L22.4726562,28.25 C22.3033854,28.25 22.1536458,28.2467448 22.0234375,28.2402344 C21.8932292,28.233724 21.7369792,28.2174479 21.5546875,28.1914062 L20.8710938,28.09375 L20.421875,28.640625 C20.3177083,28.7578125 20.03125,28.9954427 19.5625,29.3535156 C19.09375,29.7115885 18.5664062,30.0273438 17.9804688,30.3007812 Z" id="" fill="#FFFFFF" fill-rule="nonzero"></path>
                </g>
            </g>
        </g>
    </g>
</svg>