<?xml version="1.0" encoding="UTF-8"?>
<svg width="15px" height="15px" viewBox="0 0 15 15" version="1.1" xmlns="http://www.w3.org/2000/svg" xmlns:xlink="http://www.w3.org/1999/xlink">
    <title></title>
    <g id="組件" stroke="none" stroke-width="1" fill="none" fill-rule="evenodd">
        <g id="header" transform="translate(-1308.000000, -27.000000)" fill="#FFFFFF" fill-rule="nonzero">
            <g id="群組-3">
                <path d="M1321.32031,42 C1321.76302,42 1322.15365,41.8307292 1322.49219,41.4921875 C1322.83073,41.1536458 1323,40.7630208 1323,40.3203125 L1323,40.3203125 L1323,28.6796875 C1323,28.2369792 1322.83073,27.8463542 1322.49219,27.5078125 C1322.15365,27.1692708 1321.76302,27 1321.32031,27 L1321.32031,27 L1309.67969,27 C1309.23698,27 1308.84635,27.1692708 1308.50781,27.5078125 C1308.16927,27.8463542 1308,28.2369792 1308,28.6796875 L1308,28.6796875 L1308,32 L1309.67969,32 L1309.67969,28.6796875 L1321.32031,28.6796875 L1321.32031,40.3203125 L1309.67969,40.3203125 L1309.67969,37 L1308,37 L1308,40.3203125 C1308,40.7630208 1308.16927,41.1536458 1308.50781,41.4921875 C1308.84635,41.8307292 1309.23698,42 1309.67969,42 L1309.67969,42 L1321.32031,42 Z M1315.07031,38.6796875 L1319.25,34.5 L1315.07031,30.3203125 L1313.89844,31.4921875 L1316.08594,33.6796875 L1308,33.6796875 L1308,35.3203125 L1316.04688,35.3203125 L1313.89844,37.5078125 L1315.07031,38.6796875 Z" id=""></path>
            </g>
        </g>
    </g>
</svg>