<?xml version="1.0" encoding="UTF-8"?>
<svg width="17px" height="14px" viewBox="0 0 17 14" version="1.1" xmlns="http://www.w3.org/2000/svg" xmlns:xlink="http://www.w3.org/1999/xlink">
    <title></title>
    <g id="組件" stroke="none" stroke-width="1" fill="none" fill-rule="evenodd">
        <g id="header" transform="translate(-1353.000000, -28.000000)" fill="#FFFFFF" fill-rule="nonzero">
            <path d="M1369.12012,29.4824219 C1369.21973,29.4824219 1369.3138,29.4658203 1369.40234,29.4326172 C1369.49089,29.3994141 1369.56836,29.3496094 1369.63477,29.2832031 C1369.70117,29.2057292 1369.75098,29.1254883 1369.78418,29.0424805 C1369.81738,28.9594727 1369.83398,28.8626302 1369.83398,28.7519531 C1369.83398,28.6523438 1369.81738,28.5582682 1369.78418,28.4697266 C1369.75098,28.3811849 1369.70117,28.3037109 1369.63477,28.2373047 C1369.56836,28.1708984 1369.49089,28.1210938 1369.40234,28.0878906 C1369.3138,28.0546875 1369.21973,28.0380859 1369.12012,28.0380859 L1369.12012,28.0380859 L1353.96289,28.0380859 C1353.86328,28.0380859 1353.76921,28.0546875 1353.68066,28.0878906 C1353.59212,28.1210938 1353.51465,28.1708984 1353.44824,28.2373047 C1353.38184,28.3037109 1353.33203,28.3811849 1353.29883,28.4697266 C1353.26562,28.5582682 1353.24902,28.6523438 1353.24902,28.7519531 C1353.24902,28.8626302 1353.26562,28.9594727 1353.29883,29.0424805 C1353.33203,29.1254883 1353.38184,29.2057292 1353.44824,29.2832031 C1353.51465,29.3496094 1353.59212,29.3994141 1353.68066,29.4326172 C1353.76921,29.4658203 1353.86328,29.4824219 1353.96289,29.4824219 L1353.96289,29.4824219 L1369.12012,29.4824219 Z M1369.12012,35.2431641 C1369.21973,35.2431641 1369.3138,35.2265625 1369.40234,35.1933594 C1369.49089,35.1601562 1369.56836,35.1103516 1369.63477,35.0439453 C1369.70117,34.9775391 1369.75098,34.9000651 1369.78418,34.8115234 C1369.81738,34.7229818 1369.83398,34.6289062 1369.83398,34.5292969 C1369.83398,34.4296875 1369.81738,34.335612 1369.78418,34.2470703 C1369.75098,34.1585286 1369.70117,34.0810547 1369.63477,34.0146484 C1369.56836,33.9482422 1369.49089,33.8984375 1369.40234,33.8652344 C1369.3138,33.8320312 1369.21973,33.8154297 1369.12012,33.8154297 L1369.12012,33.8154297 L1353.96289,33.8154297 C1353.86328,33.8154297 1353.76921,33.8320312 1353.68066,33.8652344 C1353.59212,33.8984375 1353.51465,33.9482422 1353.44824,34.0146484 C1353.38184,34.0810547 1353.33203,34.1585286 1353.29883,34.2470703 C1353.26562,34.335612 1353.24902,34.4296875 1353.24902,34.5292969 C1353.24902,34.6289062 1353.26562,34.7229818 1353.29883,34.8115234 C1353.33203,34.9000651 1353.38184,34.9775391 1353.44824,35.0439453 C1353.51465,35.1103516 1353.59212,35.1601562 1353.68066,35.1933594 C1353.76921,35.2265625 1353.86328,35.2431641 1353.96289,35.2431641 L1353.96289,35.2431641 L1369.12012,35.2431641 Z M1369.12012,41.0205078 C1369.21973,41.0205078 1369.3138,41.0039062 1369.40234,40.9707031 C1369.49089,40.9375 1369.56836,40.8876953 1369.63477,40.8212891 C1369.70117,40.7438151 1369.75098,40.6635742 1369.78418,40.5805664 C1369.81738,40.4975586 1369.83398,40.4007161 1369.83398,40.2900391 C1369.83398,40.1904297 1369.81738,40.0963542 1369.78418,40.0078125 C1369.75098,39.9192708 1369.70117,39.8417969 1369.63477,39.7753906 C1369.56836,39.7089844 1369.49089,39.6591797 1369.40234,39.6259766 C1369.3138,39.5927734 1369.21973,39.5761719 1369.12012,39.5761719 L1369.12012,39.5761719 L1353.96289,39.5761719 C1353.86328,39.5761719 1353.76921,39.5927734 1353.68066,39.6259766 C1353.59212,39.6591797 1353.51465,39.7089844 1353.44824,39.7753906 C1353.38184,39.8417969 1353.33203,39.9192708 1353.29883,40.0078125 C1353.26562,40.0963542 1353.24902,40.1904297 1353.24902,40.2900391 C1353.24902,40.4007161 1353.26562,40.4975586 1353.29883,40.5805664 C1353.33203,40.6635742 1353.38184,40.7438151 1353.44824,40.8212891 C1353.51465,40.8876953 1353.59212,40.9375 1353.68066,40.9707031 C1353.76921,41.0039062 1353.86328,41.0205078 1353.96289,41.0205078 L1353.96289,41.0205078 L1369.12012,41.0205078 Z" id=""></path>
        </g>
    </g>
</svg>