<?xml version="1.0" encoding="utf-8"?>
<!-- Generator: Adobe Illustrator 24.0.1, SVG Export Plug-In . SVG Version: 6.00 Build 0)  -->
<svg version="1.1" id="圖層_1" xmlns="http://www.w3.org/2000/svg" xmlns:xlink="http://www.w3.org/1999/xlink" x="0px" y="0px"
	 viewBox="0 0 54 75" style="enable-background:new 0 0 54 75;" xml:space="preserve">
<style type="text/css">
	.st0{fill-rule:evenodd;clip-rule:evenodd;fill:#09216C;}
	.st1{enable-background:new    ;}
	.st2{fill:#FFFFFF;}
</style>
<title>num01</title>
<g id="Page-1">
	<g id="_x30_00_x5F_首頁copy" transform="translate(-109.000000, -271.000000)">
		<g id="num01" transform="translate(109.000000, 271.000000)">
			<g id="群組">
				<g id="矩形">
				</g>
				<circle id="橢圓形" class="st0" cx="-4" cy="86.5" r="58"/>
			</g>
			<g class="st1">
				<path class="st2" d="M17.4,67.1c-0.2-0.1-0.3-0.2-0.5-0.3l-8.5-8.5C8.1,58,8,57.7,8,57.2s0.1-0.8,0.4-1l3.1-3.1
					c0.1-0.1,0.2-0.1,0.3-0.2s0.3,0,0.4,0.1s0.2,0.2,0.3,0.3s0.1,0.3,0.1,0.4c0,0.1,0,0.2,0,0.2c0,0.1,0,0.1,0,0.2
					c0,0.7,0.2,1.3,0.7,1.8s1.1,0.7,1.7,0.7c0.7,0,1.3-0.2,1.7-0.7s0.7-1.1,0.7-1.8s-0.2-1.3-0.7-1.7s-1-0.7-1.7-0.7
					c-0.1,0-0.1,0-0.2,0c-0.1,0-0.2,0-0.2,0c-0.1,0-0.3,0-0.4-0.1c-0.1-0.1-0.2-0.2-0.3-0.3s-0.1-0.2,0-0.4s0.1-0.3,0.2-0.3l2.9-2.9
					c0.3-0.3,0.6-0.4,1.1-0.4c0.4,0,0.8,0.1,1.1,0.4l2.1,2.1c0.2-0.7,0.6-1.3,1.2-1.7s1.3-0.7,2-0.7c1,0,1.8,0.3,2.4,1
					c0.7,0.7,1,1.5,1,2.4c0,0.8-0.2,1.5-0.7,2.1s-1,1-1.7,1.2l2.1,2.1c0.3,0.3,0.4,0.6,0.4,1s-0.1,0.8-0.4,1l-8.5,8.5
					C19,66.8,18.8,67,18.6,67c-0.2,0.1-0.4,0.1-0.6,0.1S17.6,67.2,17.4,67.1z M9.3,57.1c-0.1,0.1-0.1,0.1-0.1,0.2
					c0,0.1,0,0.1,0.1,0.2l8.5,8.5c0.1,0,0.1,0,0.2,0s0.1,0,0.2-0.1l8.5-8.5c0,0,0.1-0.1,0.1-0.2s0-0.1-0.1-0.2l-3-3
					c-0.1-0.1-0.1-0.2-0.2-0.3c0-0.1,0-0.3,0.1-0.4c0.1-0.1,0.1-0.2,0.3-0.3s0.2-0.1,0.4-0.1h0.1h0.1h0.1c0.6,0,1.1-0.2,1.6-0.6
					c0.4-0.4,0.6-0.9,0.6-1.6c0-0.6-0.2-1.1-0.6-1.5s-0.9-0.6-1.6-0.6c-0.6,0-1.1,0.2-1.5,0.6s-0.6,0.9-0.6,1.5v0.1v0.1V51
					c0,0.1,0,0.3-0.1,0.4c-0.1,0.1-0.2,0.2-0.3,0.3s-0.2,0.1-0.4,0c-0.1,0-0.2-0.1-0.3-0.2l-3.1-3.1c-0.1-0.1-0.1-0.1-0.2-0.1
					s-0.1,0-0.2,0.1L16,50.3c0.8,0.2,1.5,0.6,2,1.3s0.8,1.4,0.8,2.3c0,1-0.3,1.9-1,2.7c-0.7,0.7-1.6,1.1-2.6,1.1
					c-0.9,0-1.6-0.3-2.3-0.8s-1.1-1.2-1.3-2.1L9.3,57.1z"/>
			</g>
		</g>
	</g>
</g>
</svg>
